PathFileType	4	(X/Y/Z)	Walk8.trc
DataRate	CameraRate	NumFrames	NumMarkers	Units	OrigDataRate	OrigDataStartFrame	OrigNumFrames
200.000000	200.000000	4	61	mm	200.000000	404	439
Frame#	Times		LFHD		RFHD		LBHD		CLAV		STRN		LASI		RASI		RACR1		RUA1		RFA1		RWRR		RWRU		RCAR		LACR1		LUA1		LFA1		LWRU		LCAR		RTH3		RTH2		RTH4		RMFC		RTB1		RTB3		RTB4		RMT5		LTH1		LTH3		LTH2		LTH4		LLFC		LTB1		LTB3		LTB2		LTB4		LMMAL		LToe		RLFC		RTH1		RElbow		RToe		RTB2		T10		LElbow		RMT1		RMMAL		LMFC		LPSI		RBack		LWRR		LMT5		RBHD		RLMAL		LCAL		RPSI		RCAL		LLMAL		RElbowM		C7		LMT1		LElbowM
			X1	Y1	Z1	X2	Y2	Z2	X3	Y3	Z3	X4	Y4	Z4	X5	Y5	Z5	X6	Y6	Z6	X7	Y7	Z7	X8	Y8	Z8	X9	Y9	Z9	X10	Y10	Z10	X11	Y11	Z11	X12	Y12	Z12	X13	Y13	Z13	X14	Y14	Z14	X15	Y15	Z15	X16	Y16	Z16	X17	Y17	Z17	X18	Y18	Z18	X19	Y19	Z19	X20	Y20	Z20	X21	Y21	Z21	X22	Y22	Z22	X23	Y23	Z23	X24	Y24	Z24	X25	Y25	Z25	X26	Y26	Z26	X27	Y27	Z27	X28	Y28	Z28	X29	Y29	Z29	X30	Y30	Z30	X31	Y31	Z31	X32	Y32	Z32	X33	Y33	Z33	X34	Y34	Z34	X35	Y35	Z35	X36	Y36	Z36	X37	Y37	Z37	X38	Y38	Z38	X39	Y39	Z39	X40	Y40	Z40	X41	Y41	Z41	X42	Y42	Z42	X43	Y43	Z43	X44	Y44	Z44	X45	Y45	Z45	X46	Y46	Z46	X47	Y47	Z47	X48	Y48	Z48	X49	Y49	Z49	X50	Y50	Z50	X51	Y51	Z51	X52	Y52	Z52	X53	Y53	Z53	X54	Y54	Z54	X55	Y55	Z55	X56	Y56	Z56	X57	Y57	Z57	X58	Y58	Z58	X59	Y59	Z59	X60	Y60	Z60	X61	Y61	Z61

404	2.02	1389.5	1604.1	-57.032	1380.8	1606.4	42.143	1253.3	1530.9	-90.554	1358	1325.1	-7.4978	1383.5	1192.9	0.6202	1348.3	916.52	-114.04	1337.3	929.04	132.79	1273.8	1356.8	154.47	1267	1187	209.01	1297.4	900.49	274.52	1296.4	779.91	283.67	1353.5	785.48	245.51	1343	720.18	296.55	1295	1373.7	-164.22	1301.3	1202.8	-234.12	1372.3	926.26	-297.93	1461.8	840.45	-284.33	1460.9	773.09	-325.52	1392.7	608.29	174.94	1408.1	712.85	176.66	1357.7	684.38	190.93	1446.6	469.35	23.11	1429.9	362.49	120.9	1337.8	217.3	99.649	1383.5	289.29	111.49	1311.8	62.515	122.08	1288.6	749.95	-178.62	1265.3	583.01	-147.83	1330.3	664.36	-138.98	1275.3	664.97	-164.44	1238.8	442.26	-124.66	1256.5	341.14	-54.847	1212.4	176.72	-40.289	1221.2	256.39	-108.54	1231.4	258.22	-48.733	1155.4	93.112	-0.86841	1334.9	24.784	-29.752	1447.7	473.72	152.16	1322.9	761.74	209.56	1254	1022.5	243.79	1398.8	50.749	88.277	1339.8	313.34	147.32	1175.4	1213.6	-13.065	1302.1	1046.8	-268.97	1356.9	65.243	48.333	1266.7	155.82	28.377	1204.6	439.6	4.9393	1170.7	974.43	-48.39	1166.3	1299.7	51.729	1398.8	811.37	-290.13	1247.3	24.206	-88.869	1242.3	1540.9	55.045	1236.8	145.31	106.05	1085.1	49.276	-41.931	1168.8	967.89	52.241	1184.5	139.53	56.107	1145.1	73.139	-82.158	1233.8	1014.5	167.22	1247.1	1426.7	-15.369	1276.5	30.571	-5.0177	1289.4	1020.5	-197.04
405	2.025	1396.7	1603.9	-56.677	1387.9	1606	42.493	1260.4	1530.8	-90.372	1364.9	1324.8	-7.3993	1390.3	1192.6	0.57422	1354.8	916.17	-114.09	1344.4	928.83	132.83	1280.4	1356.4	154.52	1272.8	1186.6	209.09	1301.4	900.06	275.09	1299.2	779.41	284.29	1356.8	784.56	246.73	1345.3	719.43	297.77	1302.1	1373.5	-164.12	1309.2	1202.8	-234.34	1384.2	927.51	-297.95	1475.4	843.83	-283.54	1476.2	776.27	-324.39	1401.5	609.04	175.17	1416.1	713.7	177.39	1365.9	684.79	191.29	1456.7	470.82	23.446	1442.9	363.36	121.17	1355.7	215.29	99.995	1399	288.72	111.8	1334.8	60.031	122.78	1293.7	749.87	-178.52	1268.7	583.21	-147.77	1334.4	663.81	-138.81	1279.5	664.99	-164.35	1240.6	442.66	-124.81	1258	341.37	-55.024	1213.2	177.18	-40.368	1222.2	256.81	-108.64	1232.5	258.61	-48.848	1155.8	93.81	-0.8101	1334.9	24.722	-29.783	1457.8	475	152.27	1330.4	761.81	210.15	1259.1	1022.3	243.9	1422.1	51.102	89.139	1354.7	311.32	147.7	1182.2	1213.4	-13.129	1311.2	1046.8	-269.44	1379.9	64.142	49.089	1286.7	151.48	28.792	1206.5	440.22	4.9371	1177.3	974.26	-47.916	1173.1	1299.4	51.502	1413.2	813.25	-289.72	1247.3	24.234	-88.771	1249.4	1540.6	55.236	1257	140.05	106.47	1085.3	50.286	-41.739	1175.7	967.69	52.717	1205.1	132.55	56.352	1145.4	73.889	-82.093	1239.4	1014.1	167.22	1254.2	1426.5	-15.311	1276.5	30.525	-5.0123	1298.7	1020.3	-197.61
406	2.03	1403.8	1603.5	-56.321	1395	1605.6	42.845	1267.5	1530.6	-90.192	1371.8	1324.4	-7.2899	1397.1	1192.1	0.53376	1361.2	915.79	-114.17	1351.6	928.52	132.86	1287	1356	154.59	1278.7	1186.2	209.19	1305.4	899.59	275.66	1302.1	778.89	284.9	1360.2	783.62	247.97	1347.6	718.66	298.98	1309.2	1373.3	-164	1317	1202.8	-234.54	1396	928.74	-297.92	1489	847.24	-282.68	1491.5	779.5	-323.14	1410.2	609.66	175.39	1423.9	714.4	178.09	1374	685.08	191.66	1466.4	472.11	23.781	1455.8	364.17	121.4	1373.6	213.32	100.37	1414.4	288.14	112.11	1357.8	57.704	123.51	1298.8	749.76	-178.45	1272.1	583.39	-147.7	1338.5	663.25	-138.7	1283.8	664.98	-164.31	1242.4	443.06	-124.96	1259.5	341.6	-55.196	1214	177.64	-40.447	1223.2	257.23	-108.74	1233.6	259	-48.954	1156.3	94.517	-0.75482	1335	24.672	-29.831	1467.8	476.12	152.36	1337.8	761.78	210.74	1264.3	1022	244.03	1445.4	51.654	89.983	1369.6	309.21	148.12	1189.1	1213.2	-13.154	1320.2	1046.8	-269.9	1403	63.235	49.854	1307	147.2	29.266	1208.5	440.82	4.9393	1183.9	974.03	-47.395	1180	1299.1	51.308	1427.4	815.17	-289.25	1247.3	24.264	-88.67	1256.4	1540.1	55.421	1277.5	134.85	106.96	1085.5	51.321	-41.549	1182.7	967.41	53.234	1225.9	125.63	56.688	1145.6	74.64	-82.02	1245.1	1013.7	167.23	1261.5	1426.2	-15.239	1276.6	30.472	-5.0021	1307.8	1020	-198.17
407	2.035	1410.9	1603.2	-55.962	1402.1	1605.1	43.198	1274.6	1530.3	-90.016	1378.7	1323.9	-7.1699	1403.9	1191.5	0.5022	1367.5	915.35	-114.28	1358.8	928.13	132.88	1293.8	1355.5	154.67	1284.6	1185.8	209.3	1309.5	899.1	276.24	1305.1	778.34	285.51	1363.6	782.67	249.21	1350	717.88	300.18	1316.4	1373	-163.88	1324.8	1202.7	-234.71	1407.7	929.96	-297.83	1502.4	850.67	-281.74	1506.6	782.79	-321.8	1418.8	610.15	175.6	1431.8	714.95	178.76	1382	685.24	192.03	1475.8	473.21	24.112	1468.5	364.91	121.61	1391.6	211.41	100.76	1429.8	287.55	112.42	1381.1	55.566	124.27	1303.8	749.62	-178.42	1275.5	583.53	-147.64	1342.7	662.68	-138.65	1288	664.96	-164.29	1244.3	443.44	-125.1	1261	341.8	-55.363	1214.8	178.09	-40.525	1224.2	257.64	-108.84	1234.8	259.38	-49.052	1156.7	95.232	-0.70432	1335.1	24.63	-29.892	1477.5	477.08	152.45	1345.2	761.64	211.34	1269.5	1021.7	244.18	1468.8	52.436	90.814	1384.5	307.03	148.58	1196	1212.9	-13.139	1329.2	1046.7	-270.34	1426.2	62.549	50.628	1327.3	143.02	29.798	1210.7	441.4	4.9462	1190.4	973.74	-46.826	1186.9	1298.8	51.149	1441.6	817.13	-288.72	1247.2	24.293	-88.566	1263.5	1539.6	55.602	1298.2	129.72	107.53	1085.6	52.38	-41.363	1189.6	967.06	53.793	1247.1	118.78	57.113	1145.9	75.392	-81.941	1250.7	1013.2	167.25	1268.8	1425.9	-15.151	1276.7	30.416	-4.988	1317	1019.7	-198.74
